<?xml version="1.0" encoding="UTF-8"?>
<!DOCTYPE svg PUBLIC "-//W3C//DTD SVG 1.1//EN" "http://www.w3.org/Graphics/SVG/1.1/DTD/svg11.dtd">
<!-- Creator: CorelDRAW -->
<svg xmlns="http://www.w3.org/2000/svg" xml:space="preserve" width="14.7638mm" height="15.0284mm" version="1.1" style="shape-rendering:geometricPrecision; text-rendering:geometricPrecision; image-rendering:optimizeQuality; fill-rule:evenodd; clip-rule:evenodd"
viewBox="0 0 1462.37 1488.58"
 xmlns:xlink="http://www.w3.org/1999/xlink"
 xmlns:xodm="http://www.corel.com/coreldraw/odm/2003">
 <defs>
  <style type="text/css">
   <![CDATA[
    .fil1 {fill:#18610B;fill-rule:nonzero}
    .fil0 {fill:#C42216;fill-rule:nonzero}
    .fil2 {fill:white;fill-rule:nonzero}
   ]]>
  </style>
 </defs>
 <g id="Layer_x0020_1">
  <metadata id="CorelCorpID_0Corel-Layer"/>
  <g id="_2590596788144">
   <path class="fil0" d="M731.19 220.14c293.52,0 524.15,230.62 524.15,524.15l207.04 0c0,-414.07 -330.22,-744.29 -744.29,-744.29 -414.07,0 -718.08,330.22 -718.08,744.29l207.04 0c0,-293.52 243.74,-524.15 524.15,-524.15z"/>
   <path class="fil1" d="M207.04 744.29l-207.04 0c0,414.07 304.01,744.29 720.7,744.29 416.69,0 741.68,-330.22 741.68,-744.29l-207.04 0c0,293.52 -230.62,524.15 -524.15,524.15 -280.41,0 -524.15,-230.63 -524.15,-524.15z"/>
   <path class="fil0" d="M752.16 597.53l-110.08 183.45 0 0 49.79 0 0 0 0 96.97c0,0 0,0 13.1,0l110.08 -159.87 0 0 -49.79 0 0 0 -13.1 -120.56c13.1,0 0,0 0,0z"/>
   <path class="fil2" d="M600.15 487.46l-15.73 57.66 -52.41 0 68.14 -220.14 65.51 0 68.14 220.14 -55.03 0 -18.34 -57.66 -60.27 0zm57.66 -36.69l-15.73 -47.18c-5.24,-13.1 -7.86,-28.82 -10.48,-41.93l0 0c-2.62,13.1 -7.86,28.82 -10.48,41.93l-13.1 47.18 49.79 0z"/>
   <path class="fil2" d="M917.26 537.25c-10.48,5.24 -28.82,10.48 -57.66,10.48 -76,0 -115.32,-47.18 -115.32,-110.08 0,-76 55.03,-117.93 120.56,-117.93 26.21,0 44.55,5.24 55.03,10.48l-10.48 39.31c-10.48,-5.24 -23.58,-7.86 -41.93,-7.86 -39.31,0 -70.76,23.58 -70.76,73.38 0,44.55 26.21,73.38 70.76,73.38 15.73,0 31.45,-2.62 41.93,-7.86l7.86 36.71z"/>
   <path class="fil2" d="M539.87 946.09c18.34,-2.62 41.93,-5.24 68.14,-5.24 41.93,0 68.14,7.86 91.72,23.58 23.58,18.34 36.69,44.55 36.69,83.87 0,41.93 -15.73,70.76 -36.69,89.11 -23.58,18.34 -57.66,28.82 -102.21,28.82 -26.21,0 -44.55,-2.62 -57.66,-2.62l0.01 -217.52zm49.8 180.83c5.24,0 10.48,0 18.34,0 44.55,0 76,-23.58 76,-78.63 0,-47.18 -26.21,-70.76 -70.76,-70.76 -10.48,0 -18.34,0 -23.58,2.62l0 146.76z"/>
   <path class="fil2" d="M930.36 1158.37c-10.48,5.24 -28.82,10.48 -57.66,10.48 -76,0 -115.32,-47.18 -115.32,-110.08 0,-76 55.03,-117.93 120.56,-117.93 26.21,0 44.55,5.24 55.03,10.48l-10.48 39.31c-10.48,-5.24 -23.58,-7.86 -41.93,-7.86 -39.31,0 -70.76,23.58 -70.76,73.38 0,44.55 26.21,73.38 70.76,73.38 15.73,0 31.45,-2.62 41.93,-7.86l7.86 36.71z"/>
  </g>
 </g>
</svg>
